<?xml version="1.0" encoding="UTF-8" standalone="no"?> <svg width="64" height="64" viewBox="0 0 64 64" fill="none" xmlns="http://www.w3.org/2000/svg">
<path d="M44.29 41.29C44.1061 41.1032 44.0021 40.8521 44 40.59V37.33C43.998 37.114 43.928 36.904 43.8 36.73L41.2 33.27C41.072 33.096 41.002 32.886 41 32.67V29.44C40.9976 29.1925 40.9052 28.9543 40.74 28.77L39.43 27.46C39.3008 27.3297 39.1382 27.2374 38.9601 27.1933C38.7819 27.1492 38.5951 27.155 38.42 27.21L36.27 27.91C36.0928 27.9715 35.9012 27.9784 35.72 27.93L32.8 27.22L32.59 27.17C32.4123 27.1263 32.2497 27.0354 32.1195 26.9069C31.9892 26.7784 31.8961 26.6171 31.85 26.44L31.11 23.43C31.0763 23.2948 31.0705 23.1542 31.0928 23.0166C31.1152 22.8791 31.1652 22.7476 31.24 22.63L32.7 20.45C32.7924 20.3118 32.9173 20.1985 33.0638 20.1201C33.2103 20.0416 33.3738 20.0004 33.54 20H36.7C36.8611 19.9994 37.0197 20.0408 37.16 20.12C37.0049 19.5922 36.9615 19.038 37.0325 18.4925C37.1035 17.947 37.2875 17.4223 37.5725 16.9519C37.8576 16.4815 38.2376 16.0756 38.6883 15.7602C39.1389 15.4448 39.6504 15.2268 40.19 15.12C40.5103 15.0389 40.8396 14.9986 41.17 15H42.1C42.3357 14.9979 42.5633 14.914 42.7439 14.7626C42.9245 14.6112 43.0469 14.4017 43.09 14.17C43.1717 13.7727 43.3169 13.3911 43.52 13.04C42.7164 12.2998 41.8609 11.6181 40.96 11C40.8 10.89 40.64 10.78 40.47 10.68C38.8227 9.60657 37.0405 8.75585 35.17 8.15C31.1324 6.81979 26.8042 6.63974 22.67 7.63L23.29 8.73L23.77 9.58C23.8396 9.71214 23.9392 9.82617 24.0607 9.91299C24.1823 9.9998 24.3224 10.057 24.47 10.08H24.49L28.47 10.75C28.7007 10.7893 28.9106 10.9075 29.0638 11.0845C29.217 11.2614 29.304 11.486 29.31 11.72C29.3111 11.9227 29.2519 12.1211 29.14 12.29L28.21 13.68C28.1436 13.7839 28.0573 13.8736 27.956 13.944C27.8547 14.0144 27.7405 14.064 27.62 14.09L24.34 14.91C24.1201 14.9677 23.9263 15.0981 23.79 15.28L21.14 18.81C21.0506 18.938 20.9302 19.0412 20.79 19.11L17.12 20.94C17.0407 20.9803 16.9568 21.0106 16.87 21.03L12.8 21.84C12.5741 21.8861 12.3711 22.0088 12.2253 22.1874C12.0795 22.366 11.9999 22.5895 12 22.82V24.46C12.0003 24.6262 12.0416 24.7897 12.12 24.9362C12.1985 25.0827 12.3118 25.2076 12.45 25.3L13.03 25.68L14.55 26.7C14.6567 26.7691 14.7487 26.8585 14.8208 26.9632C14.8928 27.0678 14.9436 27.1857 14.97 27.31V27.32C14.9898 27.3917 14.9999 27.4657 15 27.54V29.38C14.9995 29.5205 14.9724 29.6596 14.92 29.79C14.8654 29.9148 14.7858 30.0271 14.6862 30.1201C14.5866 30.2131 14.469 30.2847 14.3407 30.3306C14.2124 30.3764 14.0761 30.3956 13.9401 30.3869C13.8042 30.3782 13.6714 30.3418 13.55 30.28L9.35999 28.18L9.19999 28.1C9.06765 28.0325 8.95163 27.9369 8.85999 27.82L5.81999 23.92C5.27212 25.9001 4.99625 27.9455 4.99999 30C4.99406 34.6248 6.38857 39.143 8.99999 42.96V50C9.00051 50.593 9.17674 51.1725 9.50642 51.6653C9.8361 52.1582 10.3044 52.5423 10.8523 52.7691C11.4002 52.996 12.0029 53.0554 12.5845 52.9399C13.1661 52.8243 13.7004 52.539 14.12 52.12C14.4675 51.7719 14.722 51.3421 14.86 50.87C14.9526 50.5893 14.9998 50.2956 15 50V48.97C18.5429 51.4079 22.7029 52.7946 27 52.97V58C27 58.7956 27.3161 59.5587 27.8787 60.1213C28.4413 60.6839 29.2043 61 30 61C30.7956 61 31.5587 60.6839 32.1213 60.1213C32.6839 59.5587 33 58.7956 33 58V53C32.999 52.8031 33.0294 52.6073 33.09 52.42C33.2143 52.0099 33.4669 51.6506 33.8108 51.395C34.1546 51.1393 34.5715 51.0009 35 51C35.4642 50.9996 35.9138 51.1624 36.27 51.46C36.3191 51.5006 36.3659 51.544 36.41 51.59C36.598 51.7734 36.7471 51.9927 36.8485 52.235C36.9499 52.4772 37.0014 52.7374 37 53V55C37.0016 55.5299 37.2128 56.0377 37.5875 56.4125C37.9623 56.7872 38.47 56.9984 39 57C39.5292 56.9961 40.0356 56.7841 40.4099 56.4099C40.7841 56.0356 40.9961 55.5292 41 55V48.97C43.1485 47.4977 45.0319 45.6719 46.57 43.57L44.29 41.29ZM26 43L24.55 43.72C24.3836 43.8039 24.2439 43.9326 24.1467 44.0916C24.0495 44.2506 23.9987 44.4336 24 44.62V47.6C24.0014 47.7584 23.965 47.9148 23.8936 48.0562C23.8223 48.1976 23.7182 48.3199 23.59 48.4128C23.4618 48.5058 23.3132 48.5668 23.1566 48.5906C23.0001 48.6145 22.8401 48.6006 22.69 48.55L21.75 48.24L21.47 48.15C21.323 48.1016 21.1895 48.0194 21.08 47.91C20.9706 47.8005 20.8884 47.667 20.84 47.52L19.05 42.17C19.0188 42.0661 19.0019 41.9585 19 41.85V38.62C19.003 38.5757 18.9962 38.5313 18.98 38.49V38.48C18.9645 38.3184 18.9076 38.1636 18.8148 38.0304C18.7219 37.8973 18.5963 37.7904 18.45 37.72L17.15 37.07C17.0543 37.0242 16.9666 36.9634 16.89 36.89L15.29 35.29C15.1061 35.1032 15.0021 34.8521 15 34.59V31.58C15.0017 31.5162 15.0084 31.4527 15.02 31.39C15.0462 31.2526 15.1006 31.1221 15.1798 31.0068C15.259 30.8915 15.3612 30.7938 15.48 30.72L16 30.4L19.32 28.38C19.5137 28.2628 19.7411 28.214 19.9659 28.2411C20.1906 28.2683 20.3998 28.37 20.56 28.53L21.51 29.49C21.529 29.5002 21.5459 29.5137 21.56 29.53L22.78 30.76C22.9573 30.9147 23.1847 30.9999 23.42 31H26.46C26.6262 31.0004 26.7897 31.0416 26.9362 31.1201C27.0827 31.1985 27.2076 31.3118 27.3 31.45L27.68 32.03L28.68 33.55C28.75 33.6579 28.8409 33.7507 28.9474 33.8229C29.0539 33.895 29.1738 33.9451 29.3 33.97C29.3682 33.9898 29.4389 33.9999 29.51 34H30.68C30.9452 34 31.1996 34.1054 31.3871 34.2929C31.5746 34.4804 31.68 34.7348 31.68 35C31.6799 35.0809 31.6698 35.1615 31.65 35.24L31.09 37.49C31.0492 37.6546 30.9672 37.8061 30.8518 37.9303C30.7363 38.0545 30.5912 38.1473 30.43 38.2L28.7 38.77C28.5002 38.8366 28.3263 38.9639 28.2026 39.1343C28.0788 39.3047 28.0115 39.5095 28.01 39.72L28 41.39C27.9986 41.5732 27.9465 41.7524 27.8494 41.9077C27.7523 42.0631 27.614 42.1885 27.45 42.27L26 43Z" fill="#5AAAE7"/>
<path d="M55 15H33C32.7228 14.9982 32.449 14.9391 32.1957 14.8265C31.9424 14.7138 31.7152 14.5499 31.5283 14.3452C31.3414 14.1404 31.1989 13.8992 31.1097 13.6368C31.0205 13.3743 30.9866 13.0962 31.01 12.82C31.0732 12.3107 31.3228 11.8429 31.7106 11.5068C32.0984 11.1707 32.5969 10.9902 33.11 11H39C38.1403 10.999 37.3037 10.7213 36.614 10.208C35.9242 9.69479 35.418 8.97321 35.17 8.15C35.019 7.65157 34.968 7.1282 35.02 6.61C35.1447 5.60237 35.6374 4.67638 36.4035 4.01001C37.1695 3.34364 38.1548 2.98392 39.17 3H45C45.9166 2.99918 46.8056 3.31383 47.5176 3.89108C48.2296 4.46834 48.7213 5.27303 48.91 6.17C48.9532 6.4017 49.0755 6.61119 49.2561 6.76261C49.4367 6.91403 49.6643 6.99795 49.9 7H50.83C51.8452 6.98392 52.8305 7.34364 53.5966 8.01001C54.3626 8.67638 54.8553 9.60237 54.98 10.61C54.99 10.74 55 15 55 15Z" fill="#D8D7DA"/>
<path d="M40.43 28.46C40.3008 28.3297 40.1382 28.2374 39.9601 28.1933C39.7819 28.1492 39.5951 28.155 39.42 28.21L37.27 28.91C37.0928 28.9715 36.9012 28.9784 36.72 28.93L33.59 28.17C33.4123 28.1263 33.2497 28.0354 33.1194 27.9069C32.9892 27.7784 32.8961 27.6171 32.85 27.44L32.8 27.22L35.72 27.93C35.9012 27.9784 36.0928 27.9715 36.27 27.91L38.42 27.21C38.5951 27.155 38.7819 27.1492 38.9601 27.1933C39.1382 27.2374 39.3008 27.3297 39.43 27.46L40.43 28.46Z" fill="#3D9AE2"/>
<path d="M31.68 35C31.8317 35.0001 31.9814 35.0347 32.1177 35.1012C32.254 35.1677 32.3734 35.2644 32.4669 35.3839C32.5603 35.5033 32.6254 35.6425 32.6571 35.7908C32.6888 35.9391 32.6864 36.0928 32.65 36.24L32.09 38.49C32.0492 38.6546 31.9672 38.8061 31.8518 38.9303C31.7363 39.0545 31.5912 39.1473 31.43 39.2L29.7 39.77C29.5002 39.8366 29.3263 39.9639 29.2026 40.1343C29.0789 40.3047 29.0115 40.5095 29.01 40.72L29 42.39C28.9986 42.5732 28.9465 42.7524 28.8494 42.9077C28.7523 43.0631 28.6141 43.1885 28.45 43.27L27 44L25.55 44.72C25.3836 44.8039 25.2439 44.9326 25.1467 45.0916C25.0495 45.2506 24.9987 45.4336 25 45.62V48.6C25.0014 48.7584 24.965 48.9148 24.8936 49.0562C24.8223 49.1976 24.7182 49.3199 24.59 49.4128C24.4618 49.5058 24.3132 49.5668 24.1566 49.5906C24.0001 49.6145 23.8401 49.6006 23.69 49.55L22.47 49.15C22.323 49.1016 22.1895 49.0194 22.08 48.91C21.9706 48.8005 21.8884 48.667 21.84 48.52L20.05 43.17C20.0188 43.0661 20.0019 42.9584 20 42.85V39.62C20.0013 39.4336 19.9505 39.2506 19.8533 39.0916C19.7561 38.9326 19.6164 38.8039 19.45 38.72L18.15 38.07C18.0543 38.0242 17.9666 37.9634 17.89 37.89L16.29 36.29C16.1061 36.1032 16.0021 35.8521 16 35.59V32.58C16.0004 32.4077 16.0447 32.2383 16.1287 32.0879C16.2127 31.9374 16.3336 31.8108 16.48 31.72L20.32 29.38C20.5137 29.2628 20.7411 29.214 20.9659 29.2411C21.1906 29.2683 21.3998 29.37 21.56 29.53L23.71 31.7C23.802 31.7953 23.9123 31.871 24.0343 31.9226C24.1564 31.9741 24.2875 32.0005 24.42 32H27.46C27.6262 32.0003 27.7897 32.0416 27.9362 32.1201C28.0827 32.1985 28.2076 32.3118 28.3 32.45L29.68 34.55C29.7706 34.6876 29.8938 34.8006 30.0385 34.8791C30.1833 34.9576 30.3453 34.9991 30.51 35H31.68Z" fill="#3D9AE2"/>
<path d="M16 28.54V30.4C15.9996 30.534 15.9724 30.6666 15.92 30.79C15.8407 30.9638 15.7144 31.1121 15.5554 31.2181C15.3964 31.3241 15.211 31.3836 15.02 31.39C14.8569 31.3907 14.6959 31.353 14.55 31.28L10.2 29.1C10.0677 29.0325 9.95164 28.9369 9.86 28.82L9.36 28.18L13.55 30.28C13.6714 30.3418 13.8042 30.3782 13.9401 30.3869C14.0761 30.3956 14.2124 30.3764 14.3407 30.3305C14.469 30.2847 14.5866 30.213 14.6862 30.1201C14.7858 30.0271 14.8654 29.9148 14.92 29.79C14.9724 29.6596 14.9995 29.5205 15 29.38V27.54C14.9999 27.4656 14.9898 27.3917 14.97 27.32L15.55 27.7C15.6882 27.7924 15.8015 27.9173 15.8799 28.0638C15.9584 28.2103 15.9996 28.3738 16 28.54V28.54Z" fill="#3D9AE2"/>
<path d="M23.77 9.57999L23.29 8.72999C23.41 8.68999 23.54 8.65999 23.67 8.62999L24.49 10.08H24.47C24.3224 10.057 24.1823 9.99979 24.0607 9.91298C23.9392 9.82616 23.8396 9.71213 23.77 9.57999V9.57999Z" fill="#3D9AE2"/>
<path d="M30.14 13.29L29.21 14.68C29.1436 14.7839 29.0573 14.8736 28.956 14.944C28.8547 15.0144 28.7405 15.064 28.62 15.09L25.34 15.91C25.1201 15.9677 24.9263 16.0981 24.79 16.28L22.14 19.81C22.0506 19.938 21.9302 20.0413 21.79 20.11L18.12 21.94C18.0408 21.9803 17.9568 22.0106 17.87 22.03L13.8 22.84C13.5741 22.8861 13.3711 23.0088 13.2253 23.1874C13.0796 23.366 13 23.5895 13 23.82V25.46C13.0001 25.5343 13.0102 25.6083 13.03 25.68L12.45 25.3C12.3118 25.2076 12.1985 25.0827 12.1201 24.9362C12.0416 24.7897 12.0004 24.6262 12 24.46V22.82C12 22.5895 12.0796 22.366 12.2253 22.1874C12.3711 22.0088 12.5741 21.8861 12.8 21.84L16.87 21.03C16.9568 21.0106 17.0408 20.9803 17.12 20.94L20.79 19.11C20.9302 19.0413 21.0506 18.938 21.14 18.81L23.79 15.28C23.9263 15.0981 24.1201 14.9677 24.34 14.91L27.62 14.09C27.7405 14.064 27.8547 14.0144 27.956 13.944C28.0573 13.8736 28.1436 13.7839 28.21 13.68L29.14 12.29C29.2519 12.1211 29.3111 11.9227 29.31 11.72L29.47 11.75C29.6348 11.7772 29.7901 11.8452 29.9218 11.9479C30.0535 12.0506 30.1574 12.1846 30.224 12.3377C30.2907 12.4908 30.3179 12.6582 30.3032 12.8245C30.2885 12.9909 30.2324 13.1509 30.14 13.29V13.29Z" fill="#3D9AE2"/>
<path d="M40.19 22.04L44.63 22.93C44.8702 22.9714 45.1173 22.9291 45.33 22.81L49.03 20.7C49.369 21.4518 49.6629 22.2232 49.91 23.01C51.0114 26.4579 51.2829 30.1173 50.7025 33.69C50.1221 37.2628 48.7062 40.648 46.57 43.57L44.29 41.29C44.1061 41.1032 44.0021 40.8521 44 40.59V37.33C43.998 37.114 43.928 36.904 43.8 36.73L41.2 33.27C41.072 33.0959 41.002 32.886 41 32.67V29.44C40.998 29.1749 40.8942 28.9207 40.71 28.73L39.43 27.46C39.3008 27.3297 39.1382 27.2374 38.9601 27.1933C38.7819 27.1492 38.5951 27.155 38.42 27.21L36.27 27.91C36.0928 27.9714 35.9012 27.9784 35.72 27.93L32.59 27.17C32.4123 27.1263 32.2497 27.0354 32.1195 26.9069C31.9892 26.7784 31.8961 26.6171 31.85 26.44L31.11 23.43C31.0763 23.2948 31.0705 23.1542 31.0928 23.0166C31.1152 22.8791 31.1653 22.7476 31.24 22.63L32.7 20.45C32.7924 20.3118 32.9173 20.1985 33.0638 20.12C33.2103 20.0416 33.3738 20.0003 33.54 20H36.7C36.8612 19.9994 37.0197 20.0408 37.16 20.12C37.192 20.1328 37.2223 20.1496 37.25 20.17L39.84 21.89C39.947 21.9601 40.0654 22.0109 40.19 22.04V22.04Z" fill="#00B39D"/>
<path d="M30.68 34C30.8317 34.0001 30.9813 34.0347 31.1177 34.1012C31.254 34.1677 31.3734 34.2644 31.4669 34.3839C31.5603 34.5033 31.6254 34.6425 31.6571 34.7908C31.6888 34.9391 31.6864 35.0928 31.65 35.24L31.09 37.49C31.0492 37.6546 30.9672 37.8061 30.8518 37.9303C30.7363 38.0545 30.5912 38.1473 30.43 38.2L28.7 38.77C28.5002 38.8366 28.3263 38.9639 28.2026 39.1343C28.0789 39.3047 28.0115 39.5095 28.01 39.72L28 41.39C27.9986 41.5732 27.9465 41.7524 27.8494 41.9077C27.7523 42.0631 27.6141 42.1885 27.45 42.27L26 43L24.55 43.72C24.3836 43.8039 24.2439 43.9326 24.1467 44.0916C24.0495 44.2506 23.9987 44.4336 24 44.62V47.6C24.0014 47.7584 23.965 47.9148 23.8936 48.0562C23.8223 48.1976 23.7182 48.3199 23.59 48.4128C23.4618 48.5058 23.3132 48.5668 23.1566 48.5906C23.0001 48.6145 22.8401 48.6006 22.69 48.55L21.47 48.15C21.323 48.1016 21.1895 48.0194 21.08 47.91C20.9706 47.8005 20.8884 47.667 20.84 47.52L19.05 42.17C19.0188 42.0661 19.0019 41.9584 19 41.85V38.62C19.0013 38.4336 18.9505 38.2506 18.8533 38.0916C18.7561 37.9326 18.6164 37.8039 18.45 37.72L17.15 37.07C17.0543 37.0242 16.9666 36.9634 16.89 36.89L15.29 35.29C15.1061 35.1032 15.0021 34.8521 15 34.59V31.58C15.0004 31.4077 15.0447 31.2383 15.1287 31.0879C15.2127 30.9374 15.3336 30.8108 15.48 30.72L19.32 28.38C19.5137 28.2628 19.7411 28.214 19.9659 28.2411C20.1906 28.2683 20.3998 28.37 20.56 28.53L22.71 30.7C22.802 30.7953 22.9123 30.871 23.0343 30.9226C23.1564 30.9741 23.2875 31.0005 23.42 31H26.46C26.6262 31.0003 26.7897 31.0416 26.9362 31.1201C27.0827 31.1985 27.2076 31.3118 27.3 31.45L28.68 33.55C28.7706 33.6876 28.8938 33.8006 29.0385 33.8791C29.1833 33.9576 29.3453 33.9991 29.51 34H30.68Z" fill="#00B39D"/>
<path d="M28.47 10.75C28.6348 10.7772 28.7901 10.8452 28.9218 10.9479C29.0535 11.0505 29.1574 11.1846 29.224 11.3377C29.2906 11.4908 29.3179 11.6582 29.3032 11.8245C29.2885 11.9909 29.2324 12.1509 29.14 12.29L28.21 13.68C28.1436 13.7839 28.0573 13.8736 27.956 13.944C27.8547 14.0144 27.7405 14.064 27.62 14.09L24.34 14.91C24.1201 14.9676 23.9263 15.0981 23.79 15.28L21.14 18.81C21.0506 18.938 20.9302 19.0412 20.79 19.11L17.12 20.94C17.0407 20.9803 16.9568 21.0106 16.87 21.03L12.8 21.84C12.5741 21.8861 12.3711 22.0088 12.2253 22.1874C12.0795 22.366 11.9999 22.5895 12 22.82V24.46C12.0003 24.6262 12.0416 24.7897 12.12 24.9362C12.1985 25.0827 12.3118 25.2076 12.45 25.3L14.55 26.7C14.6881 26.7924 14.8015 26.9173 14.8799 27.0638C14.9584 27.2103 14.9996 27.3738 15 27.54V29.38C14.9995 29.5205 14.9724 29.6596 14.92 29.79C14.8654 29.9148 14.7858 30.0271 14.6862 30.1201C14.5866 30.213 14.469 30.2847 14.3407 30.3305C14.2124 30.3764 14.0761 30.3956 13.9401 30.3869C13.8042 30.3782 13.6714 30.3418 13.55 30.28L9.19999 28.1C9.06765 28.0325 8.95163 27.9369 8.85999 27.82L5.81999 23.92C6.91061 19.9437 9.05008 16.3336 12.0145 13.4678C14.9788 10.6019 18.6591 8.58564 22.67 7.62999L23.77 9.57999C23.8396 9.71213 23.9392 9.82616 24.0607 9.91298C24.1823 9.99979 24.3224 10.057 24.47 10.08L28.47 10.75Z" fill="#00B39D"/>
<path d="M60.94 20.51C60.8125 20.0676 60.5424 19.6797 60.1716 19.4066C59.8009 19.1335 59.3503 18.9906 58.89 19H53C53.8822 19.007 54.7415 18.72 55.4424 18.1842C56.1433 17.6485 56.6458 16.8945 56.8705 16.0415C57.0953 15.1884 57.0294 14.2847 56.6835 13.4732C56.3375 12.6617 55.7311 11.9885 54.96 11.56C54.3109 11.1909 53.5767 10.9978 52.83 11H47C46.2906 10.9982 45.5937 11.1864 44.9817 11.5452C44.3697 11.904 43.865 12.4201 43.52 13.04C43.3169 13.3911 43.1717 13.7727 43.09 14.17C43.0469 14.4017 42.9245 14.6112 42.7439 14.7626C42.5633 14.914 42.3357 14.9979 42.1 15H41C39.9391 15 38.9217 15.4214 38.1716 16.1716C37.4214 16.9217 37 17.9391 37 19C37 20.0609 37.4214 21.0783 38.1716 21.8284C38.9217 22.5786 39.9391 23 41 23H45V27H49V23H49.91V23.01C49.9392 23.0017 49.9697 22.9984 50 23H59C59.3037 22.998 59.6031 22.9272 59.8756 22.793C60.148 22.6588 60.3866 22.4646 60.5732 22.225C60.7599 21.9854 60.8899 21.7066 60.9534 21.4096C61.0169 21.1125 61.0124 20.805 60.94 20.51V20.51Z" fill="#E6E7E8"/>
<path d="M61.9 20.26C61.7229 19.6011 61.3303 19.0206 60.7847 18.6109C60.2391 18.2013 59.5721 17.9862 58.89 18H57C57.7478 16.9982 58.097 15.7546 57.98 14.51C57.905 13.8272 57.6895 13.1672 57.347 12.5718C57.0046 11.9763 56.5425 11.4582 55.99 11.05C55.9967 10.8699 55.9933 10.6897 55.98 10.51C55.8247 9.25723 55.214 8.10534 54.2644 7.27368C53.3147 6.44202 52.0923 5.98868 50.83 5.99999L49.89 5.95999C49.6487 4.84124 49.0322 3.83858 48.1428 3.11831C47.2534 2.39805 46.1445 2.00346 45 1.99999H39.17C37.9077 1.98868 36.6853 2.44202 35.7356 3.27368C34.786 4.10534 34.1753 5.25723 34.02 6.50999C33.9071 7.75882 34.2676 9.00446 35.03 9.99999H33.11C32.5246 9.99905 31.9506 10.1614 31.4524 10.4688C30.9543 10.7762 30.5517 11.2164 30.29 11.74C30.2955 11.4626 30.2445 11.187 30.14 10.93C30.0068 10.6258 29.7999 10.3595 29.538 10.1552C29.2761 9.95097 28.9675 9.81513 28.64 9.75999L24.64 9.08999L24.22 8.33999C26.737 7.89666 29.3118 7.89327 31.83 8.32999L32.17 6.35999C28.9399 5.79943 25.6295 5.90149 22.44 6.65999C18.2523 7.64853 14.4089 9.74857 11.3148 12.7387C8.22083 15.7289 5.99085 19.4985 4.86 23.65C3.95008 26.9547 3.75953 30.4161 4.3012 33.8007C4.84288 37.1853 6.10417 40.4143 8 43.27V49.83C7.98278 50.8627 8.35488 51.864 9.04231 52.6348C9.72973 53.4056 10.6821 53.8894 11.71 53.99C11.8064 53.9985 11.9032 54.0018 12 54C12.9345 54.0021 13.84 53.6757 14.5583 53.078C15.2766 52.4804 15.7621 51.6493 15.93 50.73C19.0057 52.5318 22.4473 53.6186 26 53.91V57.83C25.9828 58.8627 26.3549 59.864 27.0423 60.6348C27.7297 61.4056 28.6821 61.8894 29.71 61.99C29.8064 61.9985 29.9032 62.0018 30 62C30.5255 62.0007 31.0459 61.8976 31.5315 61.6968C32.0171 61.4961 32.4583 61.2015 32.8299 60.8299C33.2015 60.4583 33.4961 60.0171 33.6969 59.5315C33.8976 59.0459 34.0007 58.5255 34 58V53C33.9971 52.901 34.0141 52.8023 34.05 52.71C34.1041 52.5481 34.1985 52.4025 34.3243 52.2871C34.4501 52.1717 34.6032 52.0901 34.7692 52.0501C34.9352 52.0102 35.1086 52.013 35.2732 52.0585C35.4378 52.1039 35.5881 52.1905 35.71 52.31C35.8036 52.3986 35.8777 52.5057 35.9276 52.6245C35.9776 52.7433 36.0022 52.8711 36 53V54.89C35.9888 55.6551 36.2634 56.3969 36.7701 56.9702C37.2769 57.5435 37.9793 57.9072 38.74 57.99C39.1542 58.0251 39.5712 57.9739 39.9647 57.8397C40.3581 57.7055 40.7195 57.4911 41.0258 57.2101C41.3322 56.9291 41.577 56.5876 41.7446 56.2072C41.9123 55.8268 41.9993 55.4157 42 55V49.49C45.096 47.2701 47.6182 44.344 49.3573 40.9545C51.0964 37.565 52.0024 33.8096 52 30C52 29.64 51.99 29.29 51.98 28.94L49.98 29.03C49.99 29.35 50 29.67 50 30C50.0068 34.2673 48.7621 38.4429 46.42 42.01L45 40.59V37.33C44.9992 36.8974 44.8589 36.4766 44.6 36.13L42 32.67V29.44C41.9968 28.9077 41.785 28.3978 41.41 28.02L40.15 26.77C39.8908 26.504 39.5627 26.3153 39.2024 26.2253C38.8421 26.1352 38.4639 26.1472 38.11 26.26L35.96 26.96L32.82 26.2L32.07 23.19L33.54 21H36.45C36.8168 21.901 37.4478 22.6698 38.2599 23.2053C39.0721 23.7408 40.0274 24.0179 41 24H44V27H46V24C45.9984 23.47 45.7872 22.9623 45.4125 22.5875C45.0377 22.2128 44.5299 22.0016 44 22H41C40.5811 22.0009 40.1667 21.9131 39.7841 21.7425C39.4015 21.5719 39.0593 21.3222 38.78 21.01C38.4945 20.7023 38.2789 20.3367 38.1477 19.938C38.0165 19.5393 37.973 19.117 38.02 18.7C38.1261 17.9399 38.5075 17.2451 39.0918 16.7474C39.6761 16.2498 40.4227 15.9838 41.19 16H42.1C42.5665 15.9991 43.0182 15.836 43.3776 15.5386C43.737 15.2412 43.9818 14.8281 44.07 14.37C44.1324 14.0751 44.2403 13.7917 44.39 13.53C44.6493 13.0656 45.0279 12.6788 45.4868 12.4098C45.9457 12.1408 46.4681 11.9993 47 12H52.83C53.4015 11.9989 53.9634 12.1471 54.46 12.43C54.8532 12.6452 55.1922 12.947 55.4516 13.3126C55.7109 13.6781 55.8837 14.0979 55.9569 14.5401C56.0301 14.9822 56.0018 15.4353 55.8742 15.8649C55.7465 16.2946 55.5228 16.6895 55.22 17.02C54.9375 17.3275 54.5944 17.5733 54.2124 17.7419C53.8304 17.9106 53.4176 17.9984 53 18H51V20H58.89C59.1268 19.992 59.3598 20.0607 59.5544 20.1959C59.749 20.331 59.8947 20.5253 59.97 20.75C60.0158 20.9203 60.0139 21.0999 59.9645 21.2692C59.9152 21.4385 59.8202 21.591 59.69 21.71C59.6014 21.8036 59.4943 21.8777 59.3755 21.9276C59.2567 21.9776 59.1288 22.0022 59 22H50C49.47 22.0016 48.9623 22.2128 48.5875 22.5875C48.2128 22.9623 48.0016 23.47 48 24V27H50V24H59C59.4567 23.9999 59.9073 23.8953 60.3174 23.6943C60.7274 23.4933 61.0861 23.2011 61.366 22.8402C61.6458 22.4793 61.8394 22.0592 61.932 21.612C62.0245 21.1648 62.0136 20.7023 61.9 20.26V20.26ZM36.03 18.5C36.02 18.6665 36.02 18.8335 36.03 19H33.54C33.21 18.9999 32.885 19.0811 32.5938 19.2363C32.3025 19.3915 32.054 19.616 31.87 19.89L30.39 22.1C30.2448 22.3314 30.1478 22.5897 30.1048 22.8595C30.0619 23.1293 30.0738 23.4049 30.14 23.67L30.88 26.68C30.9684 27.0344 31.1521 27.3578 31.4112 27.6152C31.6703 27.8726 31.995 28.0541 32.35 28.14L35.45 28.89C35.821 28.9949 36.2151 28.9844 36.58 28.86L38.73 28.17L40 29.44V32.67C40.0008 33.1026 40.1411 33.5234 40.4 33.87L43 37.33V40.59C43.0013 41.1178 43.2095 41.624 43.58 42L45.23 43.65C43.9697 45.2508 42.4921 46.6678 40.84 47.86C40.581 48.0435 40.3696 48.2863 40.2235 48.5681C40.0774 48.8499 40.0007 49.1626 40 49.48V55C39.9965 55.138 39.9652 55.2739 39.9081 55.3995C39.8509 55.5252 39.769 55.6381 39.6673 55.7314C39.5656 55.8247 39.4461 55.8966 39.316 55.9427C39.1859 55.9889 39.0478 56.0084 38.91 56C38.6498 55.9561 38.4143 55.8196 38.247 55.6155C38.0797 55.4115 37.992 55.1537 38 54.89V53C38 52.2043 37.6839 51.4413 37.1213 50.8787C36.5587 50.3161 35.7956 50 35 50C34.2043 50 33.4413 50.3161 32.8787 50.8787C32.3161 51.4413 32 52.2043 32 53V58C31.9998 58.2624 31.9476 58.5221 31.8463 58.7641C31.745 59.0062 31.5967 59.2257 31.41 59.41C31.2065 59.6125 30.9619 59.769 30.6929 59.869C30.4238 59.9691 30.1364 60.0103 29.85 59.99C29.3289 59.923 28.8511 59.6651 28.5093 59.266C28.1676 58.8669 27.9861 58.3552 28 57.83V53.91C28.0008 53.4041 27.809 52.9168 27.4636 52.5471C27.1181 52.1775 26.6448 51.9533 26.14 51.92C22.3421 51.6059 18.6935 50.2989 15.56 48.13C14.5392 47.44 13.582 46.6603 12.7 45.8L11.3 47.24C12.1429 48.0468 13.0455 48.7889 14 49.46V50C13.9985 50.2746 13.9407 50.5461 13.83 50.7974C13.7193 51.0488 13.5582 51.2748 13.3566 51.4613C13.1551 51.6479 12.9174 51.7911 12.6582 51.882C12.399 51.973 12.1239 52.0097 11.85 51.99C11.3289 51.923 10.8511 51.6651 10.5093 51.266C10.1676 50.8669 9.98605 50.3552 10 49.83V43.27C9.99683 42.8794 9.88235 42.4978 9.67 42.17C7.74396 39.2725 6.53328 35.9591 6.13753 32.5024C5.74178 29.0458 6.17228 25.5445 7.39361 22.2867C8.61493 19.0288 10.5922 16.1075 13.1628 13.7628C15.7334 11.4182 18.8238 9.71728 22.18 8.79999L22.88 10.04C23.023 10.3101 23.2265 10.5436 23.4745 10.7223C23.7225 10.9009 24.0084 11.0199 24.31 11.07L28.31 11.73L27.38 13.12L24.08 13.95C23.6434 14.0604 23.2583 14.3183 22.99 14.68L20.34 18.21L16.67 20.05L12.61 20.86C12.1564 20.9502 11.7481 21.1948 11.4545 21.5521C11.161 21.9095 11.0004 22.3575 11 22.82V24.46C11.0001 24.7911 11.0823 25.117 11.2394 25.4085C11.3965 25.7 11.6235 25.9479 11.9 26.13L14 27.54V29.39L9.65 27.21L8.79 26.1L7.21 27.33L8.06 28.42C8.24332 28.6603 8.47939 28.8553 8.75 28.99L13.11 31.18C13.3865 31.3176 13.6911 31.3895 14 31.39C14.01 31.39 14.02 31.38 14.03 31.38C14.0151 31.4458 14.0051 31.5127 14 31.58V34.59C14.0002 34.8524 14.0524 35.1121 14.1537 35.3541C14.255 35.5962 14.4033 35.8157 14.59 36L16.18 37.59C16.3316 37.744 16.5072 37.8724 16.7 37.97L18 38.62V41.85C17.9982 42.0641 18.032 42.277 18.1 42.48L19.89 47.83C19.9885 48.1258 20.1546 48.3945 20.375 48.615C20.5955 48.8354 20.8642 49.0015 21.16 49.1L22.37 49.5C22.6708 49.5988 22.9908 49.6249 23.3036 49.5762C23.6165 49.5275 23.9134 49.4055 24.17 49.22C24.4266 49.0349 24.6357 48.7915 24.78 48.5099C24.9243 48.2283 24.9997 47.9164 25 47.6V44.62L27.9 43.17C28.2303 43.0043 28.508 42.7502 28.7022 42.4359C28.8965 42.1216 28.9996 41.7595 29 41.39L29.01 39.72L30.75 39.15C31.0699 39.0421 31.3575 38.8555 31.5864 38.6073C31.8153 38.3592 31.9782 38.0575 32.06 37.73L32.62 35.48C32.694 35.1854 32.6998 34.8778 32.6368 34.5806C32.5739 34.2835 32.4438 34.0047 32.2567 33.7654C32.0695 33.5262 31.8302 33.3328 31.5569 33.2002C31.2837 33.0675 30.9837 32.9991 30.68 33H29.51L28.13 30.9C27.9483 30.6231 27.7005 30.3958 27.4089 30.2387C27.1173 30.0815 26.7912 29.9995 26.46 30H23.42L21.27 27.83C20.9541 27.5059 20.5371 27.2995 20.0878 27.245C19.6386 27.1904 19.1842 27.291 18.8 27.53L16 29.24V27.54C15.9999 27.2089 15.9177 26.883 15.7606 26.5915C15.6035 26.3 15.3765 26.0521 15.1 25.87L13 24.46V22.82L17.09 22.01C17.2561 21.9677 17.4171 21.9074 17.57 21.83L21.24 20C21.521 19.868 21.7624 19.6646 21.94 19.41L24.58 15.88L27.85 15.06C28.3392 14.9541 28.7668 14.6594 29.04 14.24L29.98 12.84C29.99 12.81 30 12.79 30.01 12.76C29.9769 13.1728 30.0296 13.588 30.1648 13.9795C30.3 14.371 30.5148 14.7302 30.7957 15.0346C31.0766 15.3389 31.4174 15.5818 31.7968 15.748C32.1762 15.9141 32.5858 15.9999 33 16H37.05C36.4771 16.7182 36.123 17.586 36.03 18.5V18.5ZM18.89 36.83L17.59 36.18L16 34.59V31.58L19.85 29.23L22 31.41C22.3777 31.7852 22.8876 31.997 23.42 32H26.46L27.84 34.1C28.0226 34.3761 28.2706 34.6027 28.5619 34.7598C28.8533 34.9168 29.179 34.9993 29.51 35H30.68L30.12 37.25L28.38 37.83C27.9834 37.9602 27.6377 38.2117 27.3919 38.5491C27.146 38.8865 27.0124 39.2926 27.01 39.71L27 41.38L24.1 42.83C23.768 42.9961 23.4891 43.2518 23.2947 43.5681C23.1003 43.8844 22.9982 44.2487 23 44.62V47.6L21.79 47.2L20 41.85V38.62C20.0019 38.2475 19.8988 37.8819 19.7024 37.5653C19.5061 37.2487 19.2245 36.9939 18.89 36.83V36.83ZM52.83 9.99999H47C46.1147 9.99907 45.2451 10.2339 44.4806 10.6803C43.7162 11.1267 43.0843 11.7686 42.65 12.54C42.3922 12.9953 42.2067 13.4878 42.1 14H33C32.8665 14.0012 32.7343 13.9742 32.6119 13.9207C32.4896 13.8673 32.3799 13.7887 32.29 13.69C32.1862 13.5905 32.1069 13.4682 32.0583 13.3329C32.0097 13.1976 31.9932 13.0528 32.01 12.91C32.05 12.6499 32.1841 12.4135 32.3869 12.2458C32.5897 12.078 32.847 11.9906 33.11 12H41L40.96 9.99999H39C38.5824 9.99844 38.1696 9.91059 37.7876 9.74194C37.4056 9.5733 37.0625 9.32751 36.78 9.01999C36.4958 8.71149 36.281 8.34572 36.1499 7.94728C36.0188 7.54885 35.9745 7.12697 36.02 6.70999C36.1193 5.94971 36.4956 5.2528 37.0769 4.75275C37.6581 4.2527 38.4034 3.98467 39.17 3.99999H45C45.6854 4.00199 46.3495 4.23805 46.8823 4.66906C47.4152 5.10008 47.7848 5.70019 47.93 6.36999C48.0182 6.82808 48.263 7.24123 48.6224 7.53862C48.9818 7.83601 49.4335 7.99912 49.9 7.99999H50.83C51.4917 7.99308 52.1391 8.19259 52.6822 8.57076C53.2253 8.94893 53.637 9.48695 53.86 10.11C53.5213 10.0383 53.1762 10.0014 52.83 9.99999V9.99999Z" fill="black"/>
</svg>
